# xmcd CD database file
#
# Track frame offsets:
#	150
#	25453
#	47232
#	75493
#	91186
#	117585
#	129455
#	157109
#	178429
#
# Disc length: 2668 seconds
#
# Revision: 0
# Processed by: cddbd v1.5.2PL0 Copyright (c) Steve Scherf et al.
# Submitted via: CDex 1.50
#
DISCID=790a6a09
DTITLE=Patrick O Hearn - Indigo
DYEAR=1991
DGENRE=New Age
TTITLE0=Devil's Lake
TTITLE1=Sacrifice
TTITLE2=Coba
TTITLE3=Upon the Wings of Night
TTITLE4=Sacred Heart
TTITLE5=The Beauty Within
TTITLE6=Desire
TTITLE7=The Ringmaster's Dream
TTITLE8=España
EXTD=YEAR: 1991
EXTT0=
EXTT1=
EXTT2=
EXTT3=
EXTT4=
EXTT5=
EXTT6=
EXTT7=
EXTT8=
PLAYORDER=
